<mxfile host="app.diagrams.net" agent="Mozilla/5.0 (Windows NT 10.0; Win64; x64) AppleWebKit/537.36 (KHTML, like Gecko) Chrome/131.0.0.0 Safari/537.36 Edg/131.0.0.0" version="24.8.8">
  <diagram name="第 1 页" id="ilEN0oSXePL39lNB--sC">
    <mxGraphModel grid="1" page="1" gridSize="10" guides="1" tooltips="1" connect="1" arrows="1" fold="1" pageScale="1" pageWidth="827" pageHeight="1169" math="0" shadow="0">
      <root>
        <mxCell id="0" />
        <mxCell id="1" parent="0" />
        <mxCell id="ednex_wXTKPMnHckJv-X-175" value="" style="rounded=0;whiteSpace=wrap;html=1;fillColor=none;" vertex="1" parent="1">
          <mxGeometry x="331" y="150" width="109" height="1000" as="geometry" />
        </mxCell>
        <mxCell id="ednex_wXTKPMnHckJv-X-173" value="" style="rounded=0;whiteSpace=wrap;html=1;fillColor=none;" vertex="1" parent="1">
          <mxGeometry x="145" y="150" width="175" height="1000" as="geometry" />
        </mxCell>
        <mxCell id="ednex_wXTKPMnHckJv-X-171" value="" style="rounded=0;whiteSpace=wrap;html=1;fillColor=none;" vertex="1" parent="1">
          <mxGeometry x="10" y="150" width="120" height="1000" as="geometry" />
        </mxCell>
        <mxCell id="ednex_wXTKPMnHckJv-X-8" value="&lt;font style=&quot;font-size: 16px;&quot;&gt;客户&lt;/font&gt;" style="text;html=1;align=center;verticalAlign=middle;whiteSpace=wrap;rounded=0;" vertex="1" parent="1">
          <mxGeometry x="48" y="100" width="60" height="30" as="geometry" />
        </mxCell>
        <mxCell id="ednex_wXTKPMnHckJv-X-9" value="&lt;font style=&quot;font-size: 16px;&quot;&gt;销售部&lt;/font&gt;" style="text;html=1;align=center;verticalAlign=middle;whiteSpace=wrap;rounded=0;" vertex="1" parent="1">
          <mxGeometry x="203" y="100" width="60" height="30" as="geometry" />
        </mxCell>
        <mxCell id="ednex_wXTKPMnHckJv-X-10" value="&lt;font style=&quot;font-size: 16px;&quot;&gt;生产部&lt;/font&gt;" style="text;html=1;align=center;verticalAlign=middle;whiteSpace=wrap;rounded=0;" vertex="1" parent="1">
          <mxGeometry x="358" y="100" width="60" height="30" as="geometry" />
        </mxCell>
        <mxCell id="ednex_wXTKPMnHckJv-X-11" value="&lt;font style=&quot;font-size: 16px;&quot;&gt;采购部&lt;/font&gt;" style="text;html=1;align=center;verticalAlign=middle;whiteSpace=wrap;rounded=0;" vertex="1" parent="1">
          <mxGeometry x="478" y="100" width="60" height="30" as="geometry" />
        </mxCell>
        <mxCell id="ednex_wXTKPMnHckJv-X-12" value="&lt;font style=&quot;font-size: 16px;&quot;&gt;成品库&lt;/font&gt;" style="text;html=1;align=center;verticalAlign=middle;whiteSpace=wrap;rounded=0;" vertex="1" parent="1">
          <mxGeometry x="598" y="100" width="60" height="30" as="geometry" />
        </mxCell>
        <mxCell id="ednex_wXTKPMnHckJv-X-13" value="&lt;font style=&quot;font-size: 16px;&quot;&gt;财务部&lt;/font&gt;" style="text;html=1;align=center;verticalAlign=middle;whiteSpace=wrap;rounded=0;" vertex="1" parent="1">
          <mxGeometry x="718" y="100" width="60" height="30" as="geometry" />
        </mxCell>
        <mxCell id="ednex_wXTKPMnHckJv-X-14" value="" style="ellipse;whiteSpace=wrap;html=1;aspect=fixed;fillColor=#000000;" vertex="1" parent="1">
          <mxGeometry x="48" y="160" width="30" height="30" as="geometry" />
        </mxCell>
        <mxCell id="ednex_wXTKPMnHckJv-X-140" style="edgeStyle=orthogonalEdgeStyle;rounded=0;orthogonalLoop=1;jettySize=auto;html=1;exitX=1;exitY=0.5;exitDx=0;exitDy=0;entryX=0;entryY=0.5;entryDx=0;entryDy=0;" edge="1" parent="1" source="ednex_wXTKPMnHckJv-X-15" target="ednex_wXTKPMnHckJv-X-28">
          <mxGeometry relative="1" as="geometry" />
        </mxCell>
        <mxCell id="ednex_wXTKPMnHckJv-X-15" value="" style="whiteSpace=wrap;html=1;aspect=fixed;" vertex="1" parent="1">
          <mxGeometry x="48" y="210" width="30" height="30" as="geometry" />
        </mxCell>
        <mxCell id="ednex_wXTKPMnHckJv-X-102" style="edgeStyle=orthogonalEdgeStyle;rounded=0;orthogonalLoop=1;jettySize=auto;html=1;exitX=0.5;exitY=1;exitDx=0;exitDy=0;entryX=0.5;entryY=0;entryDx=0;entryDy=0;" edge="1" parent="1" source="ednex_wXTKPMnHckJv-X-16" target="ednex_wXTKPMnHckJv-X-28">
          <mxGeometry relative="1" as="geometry" />
        </mxCell>
        <mxCell id="ednex_wXTKPMnHckJv-X-16" value="" style="ellipse;whiteSpace=wrap;html=1;aspect=fixed;fillColor=#000000;" vertex="1" parent="1">
          <mxGeometry x="190" y="160" width="30" height="30" as="geometry" />
        </mxCell>
        <mxCell id="ednex_wXTKPMnHckJv-X-113" style="edgeStyle=orthogonalEdgeStyle;rounded=0;orthogonalLoop=1;jettySize=auto;html=1;exitX=0.5;exitY=1;exitDx=0;exitDy=0;entryX=0.5;entryY=0;entryDx=0;entryDy=0;" edge="1" parent="1" source="ednex_wXTKPMnHckJv-X-17" target="ednex_wXTKPMnHckJv-X-49">
          <mxGeometry relative="1" as="geometry" />
        </mxCell>
        <mxCell id="ednex_wXTKPMnHckJv-X-17" value="" style="ellipse;whiteSpace=wrap;html=1;aspect=fixed;fillColor=#000000;" vertex="1" parent="1">
          <mxGeometry x="350" y="160" width="30" height="30" as="geometry" />
        </mxCell>
        <mxCell id="ednex_wXTKPMnHckJv-X-122" style="edgeStyle=orthogonalEdgeStyle;rounded=0;orthogonalLoop=1;jettySize=auto;html=1;exitX=0.5;exitY=1;exitDx=0;exitDy=0;entryX=0.5;entryY=0;entryDx=0;entryDy=0;" edge="1" parent="1" source="ednex_wXTKPMnHckJv-X-18" target="ednex_wXTKPMnHckJv-X-80">
          <mxGeometry relative="1" as="geometry" />
        </mxCell>
        <mxCell id="ednex_wXTKPMnHckJv-X-18" value="" style="ellipse;whiteSpace=wrap;html=1;aspect=fixed;fillColor=#000000;" vertex="1" parent="1">
          <mxGeometry x="470" y="160" width="30" height="30" as="geometry" />
        </mxCell>
        <mxCell id="ednex_wXTKPMnHckJv-X-132" style="edgeStyle=orthogonalEdgeStyle;rounded=0;orthogonalLoop=1;jettySize=auto;html=1;exitX=0.5;exitY=1;exitDx=0;exitDy=0;entryX=0.5;entryY=0;entryDx=0;entryDy=0;" edge="1" parent="1" source="ednex_wXTKPMnHckJv-X-19" target="ednex_wXTKPMnHckJv-X-81">
          <mxGeometry relative="1" as="geometry" />
        </mxCell>
        <mxCell id="ednex_wXTKPMnHckJv-X-19" value="" style="ellipse;whiteSpace=wrap;html=1;aspect=fixed;fillColor=#000000;" vertex="1" parent="1">
          <mxGeometry x="590" y="160" width="30" height="30" as="geometry" />
        </mxCell>
        <mxCell id="ednex_wXTKPMnHckJv-X-133" style="edgeStyle=orthogonalEdgeStyle;rounded=0;orthogonalLoop=1;jettySize=auto;html=1;exitX=0.5;exitY=1;exitDx=0;exitDy=0;entryX=0.5;entryY=0;entryDx=0;entryDy=0;" edge="1" parent="1" source="ednex_wXTKPMnHckJv-X-20" target="ednex_wXTKPMnHckJv-X-88">
          <mxGeometry relative="1" as="geometry" />
        </mxCell>
        <mxCell id="ednex_wXTKPMnHckJv-X-20" value="" style="ellipse;whiteSpace=wrap;html=1;aspect=fixed;fillColor=#000000;" vertex="1" parent="1">
          <mxGeometry x="710" y="160" width="30" height="30" as="geometry" />
        </mxCell>
        <mxCell id="ednex_wXTKPMnHckJv-X-21" value="" style="endArrow=classic;html=1;rounded=0;exitX=0.5;exitY=1;exitDx=0;exitDy=0;entryX=0.5;entryY=0;entryDx=0;entryDy=0;" edge="1" parent="1" source="ednex_wXTKPMnHckJv-X-14" target="ednex_wXTKPMnHckJv-X-15">
          <mxGeometry width="50" height="50" relative="1" as="geometry">
            <mxPoint x="380" y="570" as="sourcePoint" />
            <mxPoint x="430" y="520" as="targetPoint" />
          </mxGeometry>
        </mxCell>
        <mxCell id="ednex_wXTKPMnHckJv-X-22" value="初始" style="text;html=1;align=center;verticalAlign=middle;whiteSpace=wrap;rounded=0;" vertex="1" parent="1">
          <mxGeometry x="68" y="160" width="60" height="30" as="geometry" />
        </mxCell>
        <mxCell id="ednex_wXTKPMnHckJv-X-23" value="初始" style="text;html=1;align=center;verticalAlign=middle;whiteSpace=wrap;rounded=0;" vertex="1" parent="1">
          <mxGeometry x="220" y="160" width="60" height="30" as="geometry" />
        </mxCell>
        <mxCell id="ednex_wXTKPMnHckJv-X-24" value="初始" style="text;html=1;align=center;verticalAlign=middle;whiteSpace=wrap;rounded=0;" vertex="1" parent="1">
          <mxGeometry x="378" y="160" width="60" height="30" as="geometry" />
        </mxCell>
        <mxCell id="ednex_wXTKPMnHckJv-X-25" value="初始" style="text;html=1;align=center;verticalAlign=middle;whiteSpace=wrap;rounded=0;" vertex="1" parent="1">
          <mxGeometry x="498" y="160" width="60" height="30" as="geometry" />
        </mxCell>
        <mxCell id="ednex_wXTKPMnHckJv-X-26" value="初始" style="text;html=1;align=center;verticalAlign=middle;whiteSpace=wrap;rounded=0;" vertex="1" parent="1">
          <mxGeometry x="618" y="160" width="60" height="30" as="geometry" />
        </mxCell>
        <mxCell id="ednex_wXTKPMnHckJv-X-27" value="初始" style="text;html=1;align=center;verticalAlign=middle;whiteSpace=wrap;rounded=0;" vertex="1" parent="1">
          <mxGeometry x="738" y="160" width="60" height="30" as="geometry" />
        </mxCell>
        <mxCell id="ednex_wXTKPMnHckJv-X-103" style="edgeStyle=orthogonalEdgeStyle;rounded=0;orthogonalLoop=1;jettySize=auto;html=1;exitX=0.5;exitY=1;exitDx=0;exitDy=0;entryX=0.5;entryY=0;entryDx=0;entryDy=0;" edge="1" parent="1" source="ednex_wXTKPMnHckJv-X-28" target="ednex_wXTKPMnHckJv-X-30">
          <mxGeometry relative="1" as="geometry" />
        </mxCell>
        <mxCell id="ednex_wXTKPMnHckJv-X-28" value="" style="whiteSpace=wrap;html=1;aspect=fixed;" vertex="1" parent="1">
          <mxGeometry x="190" y="210" width="30" height="30" as="geometry" />
        </mxCell>
        <mxCell id="ednex_wXTKPMnHckJv-X-104" style="edgeStyle=orthogonalEdgeStyle;rounded=0;orthogonalLoop=1;jettySize=auto;html=1;exitX=0.5;exitY=1;exitDx=0;exitDy=0;entryX=0.5;entryY=0;entryDx=0;entryDy=0;" edge="1" parent="1" source="ednex_wXTKPMnHckJv-X-30" target="ednex_wXTKPMnHckJv-X-31">
          <mxGeometry relative="1" as="geometry" />
        </mxCell>
        <mxCell id="ednex_wXTKPMnHckJv-X-30" value="" style="ellipse;whiteSpace=wrap;html=1;aspect=fixed;fillColor=#FFFFFF;" vertex="1" parent="1">
          <mxGeometry x="190" y="260" width="30" height="30" as="geometry" />
        </mxCell>
        <mxCell id="ednex_wXTKPMnHckJv-X-105" style="edgeStyle=orthogonalEdgeStyle;rounded=0;orthogonalLoop=1;jettySize=auto;html=1;exitX=0.5;exitY=1;exitDx=0;exitDy=0;entryX=0.5;entryY=0;entryDx=0;entryDy=0;" edge="1" parent="1" source="ednex_wXTKPMnHckJv-X-31" target="ednex_wXTKPMnHckJv-X-32">
          <mxGeometry relative="1" as="geometry" />
        </mxCell>
        <mxCell id="ednex_wXTKPMnHckJv-X-31" value="" style="whiteSpace=wrap;html=1;aspect=fixed;fillColor=#000000;" vertex="1" parent="1">
          <mxGeometry x="190" y="310" width="30" height="30" as="geometry" />
        </mxCell>
        <mxCell id="ednex_wXTKPMnHckJv-X-106" style="edgeStyle=orthogonalEdgeStyle;rounded=0;orthogonalLoop=1;jettySize=auto;html=1;exitX=0.5;exitY=1;exitDx=0;exitDy=0;entryX=0.5;entryY=0;entryDx=0;entryDy=0;" edge="1" parent="1" source="ednex_wXTKPMnHckJv-X-32" target="ednex_wXTKPMnHckJv-X-33">
          <mxGeometry relative="1" as="geometry" />
        </mxCell>
        <mxCell id="ednex_wXTKPMnHckJv-X-32" value="" style="ellipse;whiteSpace=wrap;html=1;aspect=fixed;fillColor=#FFFFFF;" vertex="1" parent="1">
          <mxGeometry x="190" y="360" width="30" height="30" as="geometry" />
        </mxCell>
        <mxCell id="ednex_wXTKPMnHckJv-X-107" style="edgeStyle=orthogonalEdgeStyle;rounded=0;orthogonalLoop=1;jettySize=auto;html=1;exitX=0.5;exitY=1;exitDx=0;exitDy=0;entryX=0.5;entryY=0;entryDx=0;entryDy=0;" edge="1" parent="1" source="ednex_wXTKPMnHckJv-X-33" target="ednex_wXTKPMnHckJv-X-45">
          <mxGeometry relative="1" as="geometry" />
        </mxCell>
        <mxCell id="ednex_wXTKPMnHckJv-X-33" value="" style="whiteSpace=wrap;html=1;aspect=fixed;fillColor=#000000;" vertex="1" parent="1">
          <mxGeometry x="190" y="410" width="30" height="30" as="geometry" />
        </mxCell>
        <mxCell id="ednex_wXTKPMnHckJv-X-111" style="edgeStyle=orthogonalEdgeStyle;rounded=0;orthogonalLoop=1;jettySize=auto;html=1;exitX=0.5;exitY=1;exitDx=0;exitDy=0;entryX=0.5;entryY=0;entryDx=0;entryDy=0;" edge="1" parent="1" source="ednex_wXTKPMnHckJv-X-44" target="ednex_wXTKPMnHckJv-X-48">
          <mxGeometry relative="1" as="geometry" />
        </mxCell>
        <mxCell id="ednex_wXTKPMnHckJv-X-44" value="" style="shape=offPageConnector;whiteSpace=wrap;html=1;" vertex="1" parent="1">
          <mxGeometry x="220" y="510" width="30" height="30" as="geometry" />
        </mxCell>
        <mxCell id="ednex_wXTKPMnHckJv-X-108" style="edgeStyle=orthogonalEdgeStyle;rounded=0;orthogonalLoop=1;jettySize=auto;html=1;exitX=1;exitY=0.5;exitDx=0;exitDy=0;entryX=0.5;entryY=0;entryDx=0;entryDy=0;" edge="1" parent="1" source="ednex_wXTKPMnHckJv-X-45" target="ednex_wXTKPMnHckJv-X-44">
          <mxGeometry relative="1" as="geometry" />
        </mxCell>
        <mxCell id="ednex_wXTKPMnHckJv-X-109" style="edgeStyle=orthogonalEdgeStyle;rounded=0;orthogonalLoop=1;jettySize=auto;html=1;exitX=1;exitY=0.5;exitDx=0;exitDy=0;entryX=0.5;entryY=0;entryDx=0;entryDy=0;" edge="1" parent="1" source="ednex_wXTKPMnHckJv-X-45" target="ednex_wXTKPMnHckJv-X-46">
          <mxGeometry relative="1" as="geometry" />
        </mxCell>
        <mxCell id="ednex_wXTKPMnHckJv-X-45" value="" style="ellipse;whiteSpace=wrap;html=1;aspect=fixed;fillColor=#FFFFFF;" vertex="1" parent="1">
          <mxGeometry x="190" y="460" width="30" height="30" as="geometry" />
        </mxCell>
        <mxCell id="ednex_wXTKPMnHckJv-X-110" style="edgeStyle=orthogonalEdgeStyle;rounded=0;orthogonalLoop=1;jettySize=auto;html=1;exitX=0.5;exitY=1;exitDx=0;exitDy=0;entryX=0.5;entryY=0;entryDx=0;entryDy=0;" edge="1" parent="1" source="ednex_wXTKPMnHckJv-X-46" target="ednex_wXTKPMnHckJv-X-47">
          <mxGeometry relative="1" as="geometry" />
        </mxCell>
        <mxCell id="ednex_wXTKPMnHckJv-X-46" value="" style="shape=offPageConnector;whiteSpace=wrap;html=1;" vertex="1" parent="1">
          <mxGeometry x="270" y="510" width="30" height="30" as="geometry" />
        </mxCell>
        <mxCell id="ednex_wXTKPMnHckJv-X-112" style="edgeStyle=orthogonalEdgeStyle;rounded=0;orthogonalLoop=1;jettySize=auto;html=1;exitX=1;exitY=0.5;exitDx=0;exitDy=0;entryX=0;entryY=0.5;entryDx=0;entryDy=0;" edge="1" parent="1" source="ednex_wXTKPMnHckJv-X-47" target="ednex_wXTKPMnHckJv-X-49">
          <mxGeometry relative="1" as="geometry" />
        </mxCell>
        <mxCell id="ednex_wXTKPMnHckJv-X-118" style="edgeStyle=orthogonalEdgeStyle;rounded=0;orthogonalLoop=1;jettySize=auto;html=1;exitX=0.5;exitY=1;exitDx=0;exitDy=0;entryX=1;entryY=0.5;entryDx=0;entryDy=0;" edge="1" parent="1" source="ednex_wXTKPMnHckJv-X-47" target="ednex_wXTKPMnHckJv-X-52">
          <mxGeometry relative="1" as="geometry" />
        </mxCell>
        <mxCell id="ednex_wXTKPMnHckJv-X-47" value="" style="whiteSpace=wrap;html=1;aspect=fixed;" vertex="1" parent="1">
          <mxGeometry x="270" y="560" width="30" height="30" as="geometry" />
        </mxCell>
        <mxCell id="ednex_wXTKPMnHckJv-X-116" style="edgeStyle=orthogonalEdgeStyle;rounded=0;orthogonalLoop=1;jettySize=auto;html=1;exitX=0.5;exitY=1;exitDx=0;exitDy=0;entryX=1;entryY=0.5;entryDx=0;entryDy=0;" edge="1" parent="1" source="ednex_wXTKPMnHckJv-X-48" target="ednex_wXTKPMnHckJv-X-52">
          <mxGeometry relative="1" as="geometry">
            <Array as="points">
              <mxPoint x="235" y="665" />
            </Array>
          </mxGeometry>
        </mxCell>
        <mxCell id="ednex_wXTKPMnHckJv-X-119" style="edgeStyle=orthogonalEdgeStyle;rounded=0;orthogonalLoop=1;jettySize=auto;html=1;exitX=1;exitY=0.5;exitDx=0;exitDy=0;entryX=0;entryY=0.5;entryDx=0;entryDy=0;" edge="1" parent="1" source="ednex_wXTKPMnHckJv-X-48" target="ednex_wXTKPMnHckJv-X-80">
          <mxGeometry relative="1" as="geometry">
            <mxPoint x="430.0000000000001" y="605.1034482758621" as="targetPoint" />
          </mxGeometry>
        </mxCell>
        <mxCell id="ednex_wXTKPMnHckJv-X-48" value="" style="whiteSpace=wrap;html=1;aspect=fixed;" vertex="1" parent="1">
          <mxGeometry x="220" y="590" width="30" height="30" as="geometry" />
        </mxCell>
        <mxCell id="ednex_wXTKPMnHckJv-X-114" style="edgeStyle=orthogonalEdgeStyle;rounded=0;orthogonalLoop=1;jettySize=auto;html=1;exitX=0.5;exitY=1;exitDx=0;exitDy=0;entryX=0.5;entryY=0;entryDx=0;entryDy=0;" edge="1" parent="1" source="ednex_wXTKPMnHckJv-X-49" target="ednex_wXTKPMnHckJv-X-50">
          <mxGeometry relative="1" as="geometry" />
        </mxCell>
        <mxCell id="ednex_wXTKPMnHckJv-X-49" value="" style="whiteSpace=wrap;html=1;aspect=fixed;" vertex="1" parent="1">
          <mxGeometry x="350" y="560" width="30" height="30" as="geometry" />
        </mxCell>
        <mxCell id="ednex_wXTKPMnHckJv-X-115" style="edgeStyle=orthogonalEdgeStyle;rounded=0;orthogonalLoop=1;jettySize=auto;html=1;exitX=0.5;exitY=1;exitDx=0;exitDy=0;entryX=0.5;entryY=0;entryDx=0;entryDy=0;" edge="1" parent="1" source="ednex_wXTKPMnHckJv-X-50" target="ednex_wXTKPMnHckJv-X-51">
          <mxGeometry relative="1" as="geometry" />
        </mxCell>
        <mxCell id="ednex_wXTKPMnHckJv-X-50" value="" style="ellipse;whiteSpace=wrap;html=1;aspect=fixed;fillColor=#FFFFFF;" vertex="1" parent="1">
          <mxGeometry x="350" y="610" width="30" height="30" as="geometry" />
        </mxCell>
        <mxCell id="ednex_wXTKPMnHckJv-X-123" style="edgeStyle=orthogonalEdgeStyle;rounded=0;orthogonalLoop=1;jettySize=auto;html=1;exitX=0.5;exitY=1;exitDx=0;exitDy=0;entryX=0.5;entryY=0;entryDx=0;entryDy=0;" edge="1" parent="1" source="ednex_wXTKPMnHckJv-X-51" target="ednex_wXTKPMnHckJv-X-58">
          <mxGeometry relative="1" as="geometry" />
        </mxCell>
        <mxCell id="ednex_wXTKPMnHckJv-X-134" style="edgeStyle=orthogonalEdgeStyle;rounded=0;orthogonalLoop=1;jettySize=auto;html=1;exitX=0.5;exitY=1;exitDx=0;exitDy=0;entryX=0;entryY=0.5;entryDx=0;entryDy=0;" edge="1" parent="1" source="ednex_wXTKPMnHckJv-X-51" target="ednex_wXTKPMnHckJv-X-81">
          <mxGeometry relative="1" as="geometry" />
        </mxCell>
        <mxCell id="ednex_wXTKPMnHckJv-X-51" value="" style="whiteSpace=wrap;html=1;aspect=fixed;" vertex="1" parent="1">
          <mxGeometry x="350" y="660" width="30" height="30" as="geometry" />
        </mxCell>
        <mxCell id="ednex_wXTKPMnHckJv-X-117" style="edgeStyle=orthogonalEdgeStyle;rounded=0;orthogonalLoop=1;jettySize=auto;html=1;exitX=0.5;exitY=1;exitDx=0;exitDy=0;entryX=0.5;entryY=0;entryDx=0;entryDy=0;" edge="1" parent="1" source="ednex_wXTKPMnHckJv-X-52" target="ednex_wXTKPMnHckJv-X-53">
          <mxGeometry relative="1" as="geometry" />
        </mxCell>
        <mxCell id="ednex_wXTKPMnHckJv-X-52" value="" style="ellipse;whiteSpace=wrap;html=1;aspect=fixed;fillColor=#FFFFFF;" vertex="1" parent="1">
          <mxGeometry x="190" y="650" width="30" height="30" as="geometry" />
        </mxCell>
        <mxCell id="ednex_wXTKPMnHckJv-X-139" style="edgeStyle=orthogonalEdgeStyle;rounded=0;orthogonalLoop=1;jettySize=auto;html=1;exitX=0.5;exitY=1;exitDx=0;exitDy=0;entryX=0.5;entryY=0;entryDx=0;entryDy=0;" edge="1" parent="1" source="ednex_wXTKPMnHckJv-X-53" target="ednex_wXTKPMnHckJv-X-57">
          <mxGeometry relative="1" as="geometry" />
        </mxCell>
        <mxCell id="ednex_wXTKPMnHckJv-X-53" value="" style="whiteSpace=wrap;html=1;aspect=fixed;fillColor=#000000;" vertex="1" parent="1">
          <mxGeometry x="190" y="710" width="30" height="30" as="geometry" />
        </mxCell>
        <mxCell id="ednex_wXTKPMnHckJv-X-56" value="" style="whiteSpace=wrap;html=1;aspect=fixed;fillColor=#000000;" vertex="1" parent="1">
          <mxGeometry x="200" y="1520" width="30" height="30" as="geometry" />
        </mxCell>
        <mxCell id="ednex_wXTKPMnHckJv-X-57" value="" style="ellipse;whiteSpace=wrap;html=1;aspect=fixed;fillColor=#000000;" vertex="1" parent="1">
          <mxGeometry x="190" y="1110" width="30" height="30" as="geometry" />
        </mxCell>
        <mxCell id="ednex_wXTKPMnHckJv-X-58" value="" style="ellipse;whiteSpace=wrap;html=1;aspect=fixed;fillColor=#000000;" vertex="1" parent="1">
          <mxGeometry x="350" y="1110" width="30" height="30" as="geometry" />
        </mxCell>
        <mxCell id="ednex_wXTKPMnHckJv-X-59" value="" style="ellipse;whiteSpace=wrap;html=1;aspect=fixed;fillColor=#000000;" vertex="1" parent="1">
          <mxGeometry x="470" y="1110" width="30" height="30" as="geometry" />
        </mxCell>
        <mxCell id="ednex_wXTKPMnHckJv-X-60" value="" style="ellipse;whiteSpace=wrap;html=1;aspect=fixed;fillColor=#000000;" vertex="1" parent="1">
          <mxGeometry x="590" y="1110" width="30" height="30" as="geometry" />
        </mxCell>
        <mxCell id="ednex_wXTKPMnHckJv-X-61" value="" style="ellipse;whiteSpace=wrap;html=1;aspect=fixed;fillColor=#000000;" vertex="1" parent="1">
          <mxGeometry x="710" y="1110" width="30" height="30" as="geometry" />
        </mxCell>
        <mxCell id="ednex_wXTKPMnHckJv-X-63" value="" style="ellipse;whiteSpace=wrap;html=1;aspect=fixed;fillColor=#000000;" vertex="1" parent="1">
          <mxGeometry x="48" y="1110" width="30" height="30" as="geometry" />
        </mxCell>
        <mxCell id="ednex_wXTKPMnHckJv-X-64" value="结束" style="text;html=1;align=center;verticalAlign=middle;whiteSpace=wrap;rounded=0;" vertex="1" parent="1">
          <mxGeometry x="68" y="1110" width="60" height="30" as="geometry" />
        </mxCell>
        <mxCell id="ednex_wXTKPMnHckJv-X-65" value="结束" style="text;html=1;align=center;verticalAlign=middle;whiteSpace=wrap;rounded=0;" vertex="1" parent="1">
          <mxGeometry x="220" y="1110" width="60" height="30" as="geometry" />
        </mxCell>
        <mxCell id="ednex_wXTKPMnHckJv-X-66" value="结束" style="text;html=1;align=center;verticalAlign=middle;whiteSpace=wrap;rounded=0;" vertex="1" parent="1">
          <mxGeometry x="378" y="1110" width="60" height="30" as="geometry" />
        </mxCell>
        <mxCell id="ednex_wXTKPMnHckJv-X-67" value="结束" style="text;html=1;align=center;verticalAlign=middle;whiteSpace=wrap;rounded=0;" vertex="1" parent="1">
          <mxGeometry x="500" y="1110" width="60" height="30" as="geometry" />
        </mxCell>
        <mxCell id="ednex_wXTKPMnHckJv-X-68" value="结束" style="text;html=1;align=center;verticalAlign=middle;whiteSpace=wrap;rounded=0;" vertex="1" parent="1">
          <mxGeometry x="618" y="1110" width="60" height="30" as="geometry" />
        </mxCell>
        <mxCell id="ednex_wXTKPMnHckJv-X-69" value="结束" style="text;html=1;align=center;verticalAlign=middle;whiteSpace=wrap;rounded=0;" vertex="1" parent="1">
          <mxGeometry x="738" y="1110" width="60" height="30" as="geometry" />
        </mxCell>
        <mxCell id="ednex_wXTKPMnHckJv-X-96" style="edgeStyle=orthogonalEdgeStyle;rounded=0;orthogonalLoop=1;jettySize=auto;html=1;exitX=0.5;exitY=1;exitDx=0;exitDy=0;entryX=0.5;entryY=0;entryDx=0;entryDy=0;" edge="1" parent="1" source="ednex_wXTKPMnHckJv-X-70" target="ednex_wXTKPMnHckJv-X-71">
          <mxGeometry relative="1" as="geometry" />
        </mxCell>
        <mxCell id="ednex_wXTKPMnHckJv-X-70" value="" style="ellipse;whiteSpace=wrap;html=1;aspect=fixed;fillColor=#FFFFFF;" vertex="1" parent="1">
          <mxGeometry x="48" y="555" width="30" height="30" as="geometry" />
        </mxCell>
        <mxCell id="ednex_wXTKPMnHckJv-X-97" style="edgeStyle=orthogonalEdgeStyle;rounded=0;orthogonalLoop=1;jettySize=auto;html=1;exitX=0.5;exitY=1;exitDx=0;exitDy=0;" edge="1" parent="1" source="ednex_wXTKPMnHckJv-X-71" target="ednex_wXTKPMnHckJv-X-73">
          <mxGeometry relative="1" as="geometry" />
        </mxCell>
        <mxCell id="ednex_wXTKPMnHckJv-X-71" value="" style="whiteSpace=wrap;html=1;aspect=fixed;" vertex="1" parent="1">
          <mxGeometry x="48" y="860" width="30" height="30" as="geometry" />
        </mxCell>
        <mxCell id="ednex_wXTKPMnHckJv-X-98" style="edgeStyle=orthogonalEdgeStyle;rounded=0;orthogonalLoop=1;jettySize=auto;html=1;exitX=0.5;exitY=1;exitDx=0;exitDy=0;entryX=0.5;entryY=0;entryDx=0;entryDy=0;" edge="1" parent="1" source="ednex_wXTKPMnHckJv-X-73" target="ednex_wXTKPMnHckJv-X-76">
          <mxGeometry relative="1" as="geometry" />
        </mxCell>
        <mxCell id="ednex_wXTKPMnHckJv-X-73" value="" style="ellipse;whiteSpace=wrap;html=1;aspect=fixed;fillColor=#FFFFFF;" vertex="1" parent="1">
          <mxGeometry x="48" y="910" width="30" height="30" as="geometry" />
        </mxCell>
        <mxCell id="ednex_wXTKPMnHckJv-X-100" style="edgeStyle=orthogonalEdgeStyle;rounded=0;orthogonalLoop=1;jettySize=auto;html=1;exitX=0.5;exitY=1;exitDx=0;exitDy=0;entryX=0.5;entryY=0;entryDx=0;entryDy=0;" edge="1" parent="1" source="ednex_wXTKPMnHckJv-X-75" target="ednex_wXTKPMnHckJv-X-78">
          <mxGeometry relative="1" as="geometry" />
        </mxCell>
        <mxCell id="ednex_wXTKPMnHckJv-X-75" value="" style="ellipse;whiteSpace=wrap;html=1;aspect=fixed;fillColor=#FFFFFF;" vertex="1" parent="1">
          <mxGeometry x="48" y="1010" width="30" height="30" as="geometry" />
        </mxCell>
        <mxCell id="ednex_wXTKPMnHckJv-X-99" style="edgeStyle=orthogonalEdgeStyle;rounded=0;orthogonalLoop=1;jettySize=auto;html=1;exitX=0.5;exitY=1;exitDx=0;exitDy=0;entryX=0.5;entryY=0;entryDx=0;entryDy=0;" edge="1" parent="1" source="ednex_wXTKPMnHckJv-X-76" target="ednex_wXTKPMnHckJv-X-75">
          <mxGeometry relative="1" as="geometry" />
        </mxCell>
        <mxCell id="ednex_wXTKPMnHckJv-X-76" value="" style="whiteSpace=wrap;html=1;aspect=fixed;" vertex="1" parent="1">
          <mxGeometry x="48" y="960" width="30" height="30" as="geometry" />
        </mxCell>
        <mxCell id="ednex_wXTKPMnHckJv-X-101" style="edgeStyle=orthogonalEdgeStyle;rounded=0;orthogonalLoop=1;jettySize=auto;html=1;exitX=0.5;exitY=1;exitDx=0;exitDy=0;entryX=0.5;entryY=0;entryDx=0;entryDy=0;" edge="1" parent="1" source="ednex_wXTKPMnHckJv-X-78" target="ednex_wXTKPMnHckJv-X-63">
          <mxGeometry relative="1" as="geometry" />
        </mxCell>
        <mxCell id="ednex_wXTKPMnHckJv-X-78" value="" style="whiteSpace=wrap;html=1;aspect=fixed;fillColor=#000000;" vertex="1" parent="1">
          <mxGeometry x="48" y="1060" width="30" height="30" as="geometry" />
        </mxCell>
        <mxCell id="ednex_wXTKPMnHckJv-X-120" style="edgeStyle=orthogonalEdgeStyle;rounded=0;orthogonalLoop=1;jettySize=auto;html=1;exitX=0.5;exitY=1;exitDx=0;exitDy=0;entryX=0.5;entryY=0;entryDx=0;entryDy=0;" edge="1" parent="1" source="ednex_wXTKPMnHckJv-X-80" target="ednex_wXTKPMnHckJv-X-82">
          <mxGeometry relative="1" as="geometry" />
        </mxCell>
        <mxCell id="ednex_wXTKPMnHckJv-X-80" value="" style="whiteSpace=wrap;html=1;aspect=fixed;" vertex="1" parent="1">
          <mxGeometry x="470" y="590" width="30" height="30" as="geometry" />
        </mxCell>
        <mxCell id="ednex_wXTKPMnHckJv-X-126" style="edgeStyle=orthogonalEdgeStyle;rounded=0;orthogonalLoop=1;jettySize=auto;html=1;exitX=0.5;exitY=1;exitDx=0;exitDy=0;" edge="1" parent="1" source="ednex_wXTKPMnHckJv-X-81" target="ednex_wXTKPMnHckJv-X-85">
          <mxGeometry relative="1" as="geometry" />
        </mxCell>
        <mxCell id="ednex_wXTKPMnHckJv-X-81" value="" style="whiteSpace=wrap;html=1;aspect=fixed;" vertex="1" parent="1">
          <mxGeometry x="590" y="700" width="30" height="30" as="geometry" />
        </mxCell>
        <mxCell id="ednex_wXTKPMnHckJv-X-121" style="edgeStyle=orthogonalEdgeStyle;rounded=0;orthogonalLoop=1;jettySize=auto;html=1;exitX=0.5;exitY=1;exitDx=0;exitDy=0;entryX=0.5;entryY=0;entryDx=0;entryDy=0;" edge="1" parent="1" source="ednex_wXTKPMnHckJv-X-82" target="ednex_wXTKPMnHckJv-X-84">
          <mxGeometry relative="1" as="geometry" />
        </mxCell>
        <mxCell id="ednex_wXTKPMnHckJv-X-82" value="" style="ellipse;whiteSpace=wrap;html=1;aspect=fixed;fillColor=#FFFFFF;" vertex="1" parent="1">
          <mxGeometry x="470" y="630" width="30" height="30" as="geometry" />
        </mxCell>
        <mxCell id="ednex_wXTKPMnHckJv-X-124" style="edgeStyle=orthogonalEdgeStyle;rounded=0;orthogonalLoop=1;jettySize=auto;html=1;exitX=0.5;exitY=1;exitDx=0;exitDy=0;entryX=0.5;entryY=0;entryDx=0;entryDy=0;" edge="1" parent="1" source="ednex_wXTKPMnHckJv-X-84" target="ednex_wXTKPMnHckJv-X-59">
          <mxGeometry relative="1" as="geometry" />
        </mxCell>
        <mxCell id="ednex_wXTKPMnHckJv-X-84" value="" style="whiteSpace=wrap;html=1;aspect=fixed;" vertex="1" parent="1">
          <mxGeometry x="470" y="670" width="30" height="30" as="geometry" />
        </mxCell>
        <mxCell id="ednex_wXTKPMnHckJv-X-127" style="edgeStyle=orthogonalEdgeStyle;rounded=0;orthogonalLoop=1;jettySize=auto;html=1;exitX=0.5;exitY=1;exitDx=0;exitDy=0;entryX=0.5;entryY=0;entryDx=0;entryDy=0;" edge="1" parent="1" source="ednex_wXTKPMnHckJv-X-85" target="ednex_wXTKPMnHckJv-X-86">
          <mxGeometry relative="1" as="geometry" />
        </mxCell>
        <mxCell id="ednex_wXTKPMnHckJv-X-85" value="" style="ellipse;whiteSpace=wrap;html=1;aspect=fixed;fillColor=#FFFFFF;" vertex="1" parent="1">
          <mxGeometry x="590" y="780" width="30" height="30" as="geometry" />
        </mxCell>
        <mxCell id="ednex_wXTKPMnHckJv-X-128" style="edgeStyle=orthogonalEdgeStyle;rounded=0;orthogonalLoop=1;jettySize=auto;html=1;exitX=0.5;exitY=1;exitDx=0;exitDy=0;entryX=0.5;entryY=0;entryDx=0;entryDy=0;" edge="1" parent="1" source="ednex_wXTKPMnHckJv-X-86" target="ednex_wXTKPMnHckJv-X-60">
          <mxGeometry relative="1" as="geometry">
            <mxPoint x="605" y="1100" as="targetPoint" />
          </mxGeometry>
        </mxCell>
        <mxCell id="ednex_wXTKPMnHckJv-X-135" style="edgeStyle=orthogonalEdgeStyle;rounded=0;orthogonalLoop=1;jettySize=auto;html=1;exitX=0;exitY=0.5;exitDx=0;exitDy=0;entryX=1;entryY=0.5;entryDx=0;entryDy=0;" edge="1" parent="1" source="ednex_wXTKPMnHckJv-X-86" target="ednex_wXTKPMnHckJv-X-71">
          <mxGeometry relative="1" as="geometry" />
        </mxCell>
        <mxCell id="ednex_wXTKPMnHckJv-X-86" value="" style="whiteSpace=wrap;html=1;aspect=fixed;" vertex="1" parent="1">
          <mxGeometry x="590" y="860" width="30" height="30" as="geometry" />
        </mxCell>
        <mxCell id="ednex_wXTKPMnHckJv-X-129" style="edgeStyle=orthogonalEdgeStyle;rounded=0;orthogonalLoop=1;jettySize=auto;html=1;exitX=0.5;exitY=1;exitDx=0;exitDy=0;entryX=0.5;entryY=0;entryDx=0;entryDy=0;" edge="1" parent="1" source="ednex_wXTKPMnHckJv-X-88" target="ednex_wXTKPMnHckJv-X-90">
          <mxGeometry relative="1" as="geometry" />
        </mxCell>
        <mxCell id="ednex_wXTKPMnHckJv-X-136" style="edgeStyle=orthogonalEdgeStyle;rounded=0;orthogonalLoop=1;jettySize=auto;html=1;exitX=0;exitY=0.5;exitDx=0;exitDy=0;entryX=1;entryY=0.5;entryDx=0;entryDy=0;" edge="1" parent="1" source="ednex_wXTKPMnHckJv-X-88" target="ednex_wXTKPMnHckJv-X-76">
          <mxGeometry relative="1" as="geometry" />
        </mxCell>
        <mxCell id="ednex_wXTKPMnHckJv-X-88" value="" style="whiteSpace=wrap;html=1;aspect=fixed;" vertex="1" parent="1">
          <mxGeometry x="710" y="960" width="30" height="30" as="geometry" />
        </mxCell>
        <mxCell id="ednex_wXTKPMnHckJv-X-130" style="edgeStyle=orthogonalEdgeStyle;rounded=0;orthogonalLoop=1;jettySize=auto;html=1;exitX=0.5;exitY=1;exitDx=0;exitDy=0;entryX=0.5;entryY=0;entryDx=0;entryDy=0;" edge="1" parent="1" source="ednex_wXTKPMnHckJv-X-90" target="ednex_wXTKPMnHckJv-X-91">
          <mxGeometry relative="1" as="geometry" />
        </mxCell>
        <mxCell id="ednex_wXTKPMnHckJv-X-90" value="" style="ellipse;whiteSpace=wrap;html=1;aspect=fixed;fillColor=#FFFFFF;" vertex="1" parent="1">
          <mxGeometry x="710" y="1010" width="30" height="30" as="geometry" />
        </mxCell>
        <mxCell id="ednex_wXTKPMnHckJv-X-131" style="edgeStyle=orthogonalEdgeStyle;rounded=0;orthogonalLoop=1;jettySize=auto;html=1;exitX=0.5;exitY=1;exitDx=0;exitDy=0;entryX=0.5;entryY=0;entryDx=0;entryDy=0;" edge="1" parent="1" source="ednex_wXTKPMnHckJv-X-91" target="ednex_wXTKPMnHckJv-X-61">
          <mxGeometry relative="1" as="geometry" />
        </mxCell>
        <mxCell id="ednex_wXTKPMnHckJv-X-91" value="" style="whiteSpace=wrap;html=1;aspect=fixed;fillColor=#000000;" vertex="1" parent="1">
          <mxGeometry x="710" y="1060" width="30" height="30" as="geometry" />
        </mxCell>
        <mxCell id="ednex_wXTKPMnHckJv-X-92" value="" style="endArrow=classic;html=1;rounded=0;exitX=0.5;exitY=1;exitDx=0;exitDy=0;entryX=0.5;entryY=0;entryDx=0;entryDy=0;" edge="1" parent="1" source="ednex_wXTKPMnHckJv-X-15" target="ednex_wXTKPMnHckJv-X-70">
          <mxGeometry width="50" height="50" relative="1" as="geometry">
            <mxPoint x="310" y="730" as="sourcePoint" />
            <mxPoint x="360" y="680" as="targetPoint" />
          </mxGeometry>
        </mxCell>
        <mxCell id="ednex_wXTKPMnHckJv-X-137" value="成品&lt;br&gt;入库" style="text;html=1;align=center;verticalAlign=middle;whiteSpace=wrap;rounded=0;" vertex="1" parent="1">
          <mxGeometry x="620" y="700" width="60" height="30" as="geometry" />
        </mxCell>
        <mxCell id="ednex_wXTKPMnHckJv-X-138" value="成品&lt;br&gt;就绪" style="text;html=1;align=center;verticalAlign=middle;whiteSpace=wrap;rounded=0;" vertex="1" parent="1">
          <mxGeometry x="620" y="780" width="60" height="30" as="geometry" />
        </mxCell>
        <mxCell id="ednex_wXTKPMnHckJv-X-141" value="下订单" style="text;html=1;align=center;verticalAlign=middle;whiteSpace=wrap;rounded=0;" vertex="1" parent="1">
          <mxGeometry x="60" y="240" width="60" height="30" as="geometry" />
        </mxCell>
        <mxCell id="ednex_wXTKPMnHckJv-X-142" value="订单处理" style="text;html=1;align=center;verticalAlign=middle;whiteSpace=wrap;rounded=0;" vertex="1" parent="1">
          <mxGeometry x="230" y="310" width="60" height="30" as="geometry" />
        </mxCell>
        <mxCell id="ednex_wXTKPMnHckJv-X-143" value="查询库存状态" style="text;html=1;align=center;verticalAlign=middle;whiteSpace=wrap;rounded=0;" vertex="1" parent="1">
          <mxGeometry x="220" y="410" width="80" height="30" as="geometry" />
        </mxCell>
        <mxCell id="ednex_wXTKPMnHckJv-X-144" value="库存&lt;br&gt;充足" style="text;html=1;align=center;verticalAlign=middle;whiteSpace=wrap;rounded=0;" vertex="1" parent="1">
          <mxGeometry x="271" y="470" width="60" height="30" as="geometry" />
        </mxCell>
        <mxCell id="ednex_wXTKPMnHckJv-X-145" value="下单&lt;br&gt;生产" style="text;html=1;align=center;verticalAlign=middle;whiteSpace=wrap;rounded=0;" vertex="1" parent="1">
          <mxGeometry x="271" y="530" width="60" height="30" as="geometry" />
        </mxCell>
        <mxCell id="ednex_wXTKPMnHckJv-X-146" value="库存不足" style="text;html=1;align=center;verticalAlign=middle;whiteSpace=wrap;rounded=0;" vertex="1" parent="1">
          <mxGeometry x="160" y="510" width="60" height="30" as="geometry" />
        </mxCell>
        <mxCell id="ednex_wXTKPMnHckJv-X-147" value="下单采购" style="text;html=1;align=center;verticalAlign=middle;whiteSpace=wrap;rounded=0;" vertex="1" parent="1">
          <mxGeometry x="160" y="590" width="60" height="30" as="geometry" />
        </mxCell>
        <mxCell id="ednex_wXTKPMnHckJv-X-148" value="初始" style="text;html=1;align=center;verticalAlign=middle;whiteSpace=wrap;rounded=0;" vertex="1" parent="1">
          <mxGeometry y="540" width="60" height="30" as="geometry" />
        </mxCell>
        <mxCell id="ednex_wXTKPMnHckJv-X-149" value="收货" style="text;html=1;align=center;verticalAlign=middle;whiteSpace=wrap;rounded=0;" vertex="1" parent="1">
          <mxGeometry x="68" y="830" width="60" height="30" as="geometry" />
        </mxCell>
        <mxCell id="ednex_wXTKPMnHckJv-X-150" value="确认&lt;br&gt;收货" style="text;html=1;align=center;verticalAlign=middle;whiteSpace=wrap;rounded=0;" vertex="1" parent="1">
          <mxGeometry x="68" y="940" width="60" height="30" as="geometry" />
        </mxCell>
        <mxCell id="ednex_wXTKPMnHckJv-X-151" value="待确认货物" style="text;html=1;align=center;verticalAlign=middle;whiteSpace=wrap;rounded=0;" vertex="1" parent="1">
          <mxGeometry x="77" y="900" width="42" height="30" as="geometry" />
        </mxCell>
        <mxCell id="ednex_wXTKPMnHckJv-X-152" value="待付款" style="text;html=1;align=center;verticalAlign=middle;whiteSpace=wrap;rounded=0;" vertex="1" parent="1">
          <mxGeometry x="8" y="990" width="60" height="30" as="geometry" />
        </mxCell>
        <mxCell id="ednex_wXTKPMnHckJv-X-153" value="付款" style="text;html=1;align=center;verticalAlign=middle;whiteSpace=wrap;rounded=0;" vertex="1" parent="1">
          <mxGeometry y="1050" width="60" height="30" as="geometry" />
        </mxCell>
        <mxCell id="ednex_wXTKPMnHckJv-X-154" value="开始&lt;br&gt;生产" style="text;html=1;align=center;verticalAlign=middle;whiteSpace=wrap;rounded=0;" vertex="1" parent="1">
          <mxGeometry x="378" y="560" width="60" height="30" as="geometry" />
        </mxCell>
        <mxCell id="ednex_wXTKPMnHckJv-X-155" value="正在&lt;br&gt;生产" style="text;html=1;align=center;verticalAlign=middle;whiteSpace=wrap;rounded=0;" vertex="1" parent="1">
          <mxGeometry x="378" y="620" width="60" height="30" as="geometry" />
        </mxCell>
        <mxCell id="ednex_wXTKPMnHckJv-X-156" value="开始&lt;br&gt;采购" style="text;html=1;align=center;verticalAlign=middle;whiteSpace=wrap;rounded=0;" vertex="1" parent="1">
          <mxGeometry x="498" y="590" width="60" height="30" as="geometry" />
        </mxCell>
        <mxCell id="ednex_wXTKPMnHckJv-X-157" value="正在&lt;br&gt;采购" style="text;html=1;align=center;verticalAlign=middle;whiteSpace=wrap;rounded=0;" vertex="1" parent="1">
          <mxGeometry x="498" y="630" width="60" height="30" as="geometry" />
        </mxCell>
        <mxCell id="ednex_wXTKPMnHckJv-X-158" value="采购&lt;br&gt;完成" style="text;html=1;align=center;verticalAlign=middle;whiteSpace=wrap;rounded=0;" vertex="1" parent="1">
          <mxGeometry x="498" y="670" width="60" height="30" as="geometry" />
        </mxCell>
        <mxCell id="ednex_wXTKPMnHckJv-X-159" value="发货" style="text;html=1;align=center;verticalAlign=middle;whiteSpace=wrap;rounded=0;" vertex="1" parent="1">
          <mxGeometry x="618" y="860" width="60" height="30" as="geometry" />
        </mxCell>
        <mxCell id="ednex_wXTKPMnHckJv-X-160" value="核对订单和收货单" style="text;html=1;align=center;verticalAlign=middle;whiteSpace=wrap;rounded=0;" vertex="1" parent="1">
          <mxGeometry x="740" y="960" width="60" height="30" as="geometry" />
        </mxCell>
        <mxCell id="ednex_wXTKPMnHckJv-X-161" value="待收款" style="text;html=1;align=center;verticalAlign=middle;whiteSpace=wrap;rounded=0;" vertex="1" parent="1">
          <mxGeometry x="740" y="1010" width="60" height="30" as="geometry" />
        </mxCell>
        <mxCell id="ednex_wXTKPMnHckJv-X-162" value="收款并开发票" style="text;html=1;align=center;verticalAlign=middle;whiteSpace=wrap;rounded=0;" vertex="1" parent="1">
          <mxGeometry x="740" y="1060" width="60" height="30" as="geometry" />
        </mxCell>
        <mxCell id="ednex_wXTKPMnHckJv-X-163" value="产出&lt;br&gt;成品" style="text;html=1;align=center;verticalAlign=middle;whiteSpace=wrap;rounded=0;" vertex="1" parent="1">
          <mxGeometry x="378" y="660" width="60" height="30" as="geometry" />
        </mxCell>
        <mxCell id="ednex_wXTKPMnHckJv-X-164" value="收到订单" style="text;html=1;align=center;verticalAlign=middle;whiteSpace=wrap;rounded=0;" vertex="1" parent="1">
          <mxGeometry x="230" y="210" width="60" height="30" as="geometry" />
        </mxCell>
        <mxCell id="ednex_wXTKPMnHckJv-X-165" value="开始处理" style="text;html=1;align=center;verticalAlign=middle;whiteSpace=wrap;rounded=0;" vertex="1" parent="1">
          <mxGeometry x="230" y="260" width="60" height="30" as="geometry" />
        </mxCell>
        <mxCell id="ednex_wXTKPMnHckJv-X-166" value="完成处理" style="text;html=1;align=center;verticalAlign=middle;whiteSpace=wrap;rounded=0;" vertex="1" parent="1">
          <mxGeometry x="230" y="360" width="60" height="30" as="geometry" />
        </mxCell>
        <mxCell id="ednex_wXTKPMnHckJv-X-168" value="发布信息" style="text;html=1;align=center;verticalAlign=middle;whiteSpace=wrap;rounded=0;" vertex="1" parent="1">
          <mxGeometry x="230" y="710" width="60" height="30" as="geometry" />
        </mxCell>
        <mxCell id="ednex_wXTKPMnHckJv-X-169" value="开始查询" style="text;html=1;align=center;verticalAlign=middle;whiteSpace=wrap;rounded=0;" vertex="1" parent="1">
          <mxGeometry x="210" y="450" width="80" height="30" as="geometry" />
        </mxCell>
        <mxCell id="ednex_wXTKPMnHckJv-X-170" value="完成查询" style="text;html=1;align=center;verticalAlign=middle;whiteSpace=wrap;rounded=0;" vertex="1" parent="1">
          <mxGeometry x="210" y="670" width="80" height="30" as="geometry" />
        </mxCell>
        <mxCell id="ednex_wXTKPMnHckJv-X-176" value="" style="rounded=0;whiteSpace=wrap;html=1;fillColor=none;" vertex="1" parent="1">
          <mxGeometry x="449" y="150" width="109" height="1000" as="geometry" />
        </mxCell>
        <mxCell id="ednex_wXTKPMnHckJv-X-177" value="" style="rounded=0;whiteSpace=wrap;html=1;fillColor=none;" vertex="1" parent="1">
          <mxGeometry x="569" y="150" width="109" height="1000" as="geometry" />
        </mxCell>
        <mxCell id="ednex_wXTKPMnHckJv-X-178" value="" style="rounded=0;whiteSpace=wrap;html=1;fillColor=none;" vertex="1" parent="1">
          <mxGeometry x="689" y="150" width="109" height="1000" as="geometry" />
        </mxCell>
      </root>
    </mxGraphModel>
  </diagram>
</mxfile>
